<?xml version="1.0" encoding="UTF-8" standalone="no"?>
<!DOCTYPE svg PUBLIC "-//W3C//DTD SVG 1.1//EN" "http://www.w3.org/Graphics/SVG/1.1/DTD/svg11.dtd">
<svg width="100%" height="100%" viewBox="0 0 512 512" version="1.1" xmlns="http://www.w3.org/2000/svg" xmlns:xlink="http://www.w3.org/1999/xlink" xml:space="preserve" xmlns:serif="http://www.serif.com/" style="fill-rule:evenodd;clip-rule:evenodd;stroke-linejoin:round;stroke-miterlimit:2;">
    <g transform="matrix(2.03849,0,0,2.22538,-76.7403,-203.409)">
        <rect x="37.646" y="91.404" width="251.166" height="230.073" style="fill:rgb(243,237,213);"/>
    </g>
    <g transform="matrix(0.84375,0,0,0.84375,40,40)">
        <g transform="matrix(0.818052,0,0,0.543561,-161.14,51.6463)">
            <path d="M822.857,791.731L822.857,828.525C822.857,838.679 817.38,846.922 810.633,846.922L209.204,846.922C202.458,846.922 196.98,838.679 196.98,828.525L196.98,791.731C196.98,781.577 202.458,773.333 209.204,773.333L810.633,773.333C817.38,773.333 822.857,781.577 822.857,791.731Z" style="fill:rgb(166,28,28);"/>
        </g>
        <g transform="matrix(0.510878,0,0,0.560547,-30.7595,91.0938)">
            <path d="M236.376,176.446L236.376,212.125C236.376,221.971 227.605,229.965 216.802,229.965L79.783,229.965C68.98,229.965 60.209,221.971 60.209,212.125L60.209,176.446C60.209,166.6 68.98,158.606 79.783,158.606L216.802,158.606C227.605,158.606 236.376,166.6 236.376,176.446Z" style="fill:rgb(166,28,28);"/>
        </g>
        <g transform="matrix(0.510878,0,0,0.560547,391.241,91.0938)">
            <path d="M236.376,176.446L236.376,212.125C236.376,221.971 227.605,229.965 216.802,229.965L79.783,229.965C68.98,229.965 60.209,221.971 60.209,212.125L60.209,176.446C60.209,166.6 68.98,158.606 79.783,158.606L216.802,158.606C227.605,158.606 236.376,166.6 236.376,176.446Z" style="fill:rgb(166,28,28);"/>
        </g>
        <g transform="matrix(0.510878,0,0,0.560547,-30.7595,191.094)">
            <path d="M236.376,176.446L236.376,212.125C236.376,221.971 227.605,229.965 216.802,229.965L79.783,229.965C68.98,229.965 60.209,221.971 60.209,212.125L60.209,176.446C60.209,166.6 68.98,158.606 79.783,158.606L216.802,158.606C227.605,158.606 236.376,166.6 236.376,176.446Z" style="fill:rgb(166,28,28);"/>
        </g>
        <g transform="matrix(2.90633,0,0,0.560547,-174.987,291.094)">
            <path d="M236.376,176.446L236.376,212.125C236.376,221.971 234.835,229.965 232.936,229.965L63.65,229.965C61.751,229.965 60.209,221.971 60.209,212.125L60.209,176.446C60.209,166.6 61.751,158.606 63.65,158.606L232.936,158.606C234.835,158.606 236.376,166.6 236.376,176.446Z" style="fill:rgb(166,28,28);"/>
        </g>
        <g transform="matrix(0.510878,0,0,0.560547,391.241,191.094)">
            <path d="M236.376,176.446L236.376,212.125C236.376,221.971 227.605,229.965 216.802,229.965L79.783,229.965C68.98,229.965 60.209,221.971 60.209,212.125L60.209,176.446C60.209,166.6 68.98,158.606 79.783,158.606L216.802,158.606C227.605,158.606 236.376,166.6 236.376,176.446Z" style="fill:rgb(166,28,28);"/>
        </g>
        <g transform="matrix(0.510878,0,0,0.560547,391.241,291.094)">
            <path d="M236.376,176.446L236.376,212.125C236.376,221.971 227.605,229.965 216.802,229.965L79.783,229.965C68.98,229.965 60.209,221.971 60.209,212.125L60.209,176.446C60.209,166.6 68.98,158.606 79.783,158.606L216.802,158.606C227.605,158.606 236.376,166.6 236.376,176.446Z" style="fill:rgb(166,28,28);"/>
        </g>
        <g transform="matrix(0.433972,0,0,0.462761,-106.709,55.5958)">
            <path d="M1425.69,506.534L1425.69,765.847C1425.69,777.774 1415.37,787.456 1402.65,787.456L1356.56,787.456C1343.84,787.456 1333.52,777.774 1333.52,765.847L1333.52,506.534C1333.52,494.607 1343.84,484.924 1356.56,484.924L1402.65,484.924C1415.37,484.924 1425.69,494.607 1425.69,506.534Z" style="fill:rgb(166,28,28);"/>
        </g>
        <g transform="matrix(0.433972,0,0,0.436318,-578.709,168.419)">
            <path d="M1425.69,507.844L1425.69,764.537C1425.69,777.187 1415.37,787.456 1402.65,787.456L1356.56,787.456C1343.84,787.456 1333.52,777.187 1333.52,764.537L1333.52,507.844C1333.52,495.194 1343.84,484.924 1356.56,484.924L1402.65,484.924C1415.37,484.924 1425.69,495.194 1425.69,507.844Z" style="fill:rgb(166,28,28);"/>
        </g>
        <g transform="matrix(0.39568,0,0,0.6,-58.5886,-62.6063)">
            <path d="M1442.04,121.01L1442.04,301.01C1442.04,310.209 1430.72,317.677 1416.77,317.677L1366.23,317.677C1352.28,317.677 1340.95,310.209 1340.95,301.01L1340.95,121.01C1340.95,111.812 1352.28,104.344 1366.23,104.344L1416.77,104.344C1430.72,104.344 1442.04,111.812 1442.04,121.01Z" style="fill:rgb(166,28,28);"/>
        </g>
        <g transform="matrix(0.306387,0,4.57815e-19,0.306387,-31.4189,69.5617)">
            <path d="M516.862,362.751C520.821,362.751 524.415,363.558 527.644,365.173C530.873,366.787 533.685,368.897 536.081,371.501C538.477,374.105 540.326,377.022 541.628,380.251C542.93,383.48 543.581,386.761 543.581,390.094C543.581,393.532 542.93,396.865 541.628,400.094C540.326,403.324 538.503,406.188 536.159,408.688C533.816,411.188 531.003,413.219 527.722,414.782C524.441,416.344 520.821,417.126 516.862,417.126L483.581,417.126L483.581,362.751L516.862,362.751ZM425.769,532.594C425.769,536.969 427.904,539.157 432.175,539.157L477.019,539.157C481.394,539.157 483.581,536.969 483.581,532.594L483.581,465.094L507.8,465.094L543.269,532.907C544.519,535.303 545.665,536.943 546.706,537.829C547.748,538.714 549.31,539.157 551.394,539.157L605.456,539.157C607.54,539.157 608.894,538.428 609.519,536.969C610.144,535.511 610.04,534.053 609.206,532.594L566.237,452.594C571.654,449.157 576.602,445.121 581.081,440.485C585.56,435.85 589.415,430.876 592.644,425.563C595.873,420.251 598.373,414.678 600.144,408.844C601.915,403.011 602.8,397.126 602.8,391.188C602.8,381.813 601.081,372.621 597.644,363.61C594.206,354.6 589.362,346.605 583.112,339.626C576.862,332.647 569.389,327.022 560.691,322.751C551.993,318.48 542.331,316.344 531.706,316.344L432.175,316.344C429.987,316.344 428.373,317.048 427.331,318.454C426.29,319.86 425.769,321.397 425.769,323.063L425.769,532.594Z" style="fill:rgb(166,28,28);fill-rule:nonzero;"/>
            <path d="M626.081,427.751C626.081,443.584 629.076,458.454 635.066,472.36C641.055,486.266 649.258,498.402 659.675,508.766C670.092,519.131 682.253,527.308 696.159,533.298C710.066,539.287 724.935,542.282 740.769,542.282C756.602,542.282 771.498,539.287 785.456,533.298C799.415,527.308 811.576,519.131 821.941,508.766C832.305,498.402 840.482,486.266 846.472,472.36C852.461,458.454 855.456,443.584 855.456,427.751C855.456,411.917 852.461,397.022 846.472,383.063C840.482,369.105 832.305,356.943 821.941,346.579C811.576,336.214 799.415,328.037 785.456,322.048C771.498,316.058 756.602,313.063 740.769,313.063C724.935,313.063 710.066,316.058 696.159,322.048C682.253,328.037 670.092,336.214 659.675,346.579C649.258,356.943 641.055,369.105 635.066,383.063C629.076,397.022 626.081,411.917 626.081,427.751ZM683.737,427.751C683.737,419.417 685.17,411.657 688.034,404.469C690.899,397.282 694.857,390.98 699.909,385.563C704.961,380.147 710.977,375.902 717.956,372.829C724.935,369.756 732.54,368.219 740.769,368.219C749.102,368.219 756.732,369.756 763.659,372.829C770.586,375.902 776.602,380.147 781.706,385.563C786.81,390.98 790.769,397.282 793.581,404.469C796.394,411.657 797.8,419.417 797.8,427.751C797.8,435.98 796.394,443.714 793.581,450.954C790.769,458.193 786.81,464.496 781.706,469.86C776.602,475.225 770.586,479.469 763.659,482.594C756.732,485.719 749.102,487.282 740.769,487.282C732.54,487.282 724.935,485.719 717.956,482.594C710.977,479.469 704.961,475.225 699.909,469.86C694.857,464.496 690.899,458.193 688.034,450.954C685.17,443.714 683.737,435.98 683.737,427.751Z" style="fill:rgb(166,28,28);fill-rule:nonzero;"/>
            <path d="M867.487,361.032C867.487,365.511 869.675,367.751 874.05,367.751L927.019,367.751L927.019,532.594C927.019,536.969 929.206,539.157 933.581,539.157L976.862,539.157C981.342,539.157 983.581,536.969 983.581,532.594L983.581,367.751L1036.86,367.751C1041.24,367.751 1043.42,365.511 1043.42,361.032L1043.42,323.063C1043.42,318.584 1041.24,316.344 1036.86,316.344L874.05,316.344C869.675,316.344 867.487,318.584 867.487,323.063L867.487,361.032Z" style="fill:rgb(166,28,28);fill-rule:nonzero;"/>
            <path d="M1079.36,532.594C1079.36,536.969 1081.55,539.157 1085.92,539.157L1237.96,539.157C1242.43,539.157 1244.67,536.969 1244.67,532.594L1244.67,494.313C1244.67,489.938 1242.43,487.751 1237.96,487.751L1137.33,487.751L1137.33,449.469L1211.55,449.469C1216.45,449.469 1218.89,447.282 1218.89,442.907L1218.89,411.969C1218.89,409.574 1218.24,407.829 1216.94,406.735C1215.64,405.641 1213.84,405.094 1211.55,405.094L1137.33,405.094L1137.33,368.063L1235.14,368.063C1239.52,368.063 1241.71,365.876 1241.71,361.501L1241.71,323.063C1241.71,318.584 1239.52,316.344 1235.14,316.344L1085.92,316.344C1081.55,316.344 1079.36,318.584 1079.36,323.063L1079.36,532.594Z" style="fill:rgb(166,28,28);fill-rule:nonzero;"/>
            <path d="M1373.27,362.751C1377.23,362.751 1380.82,363.558 1384.05,365.173C1387.28,366.787 1390.09,368.897 1392.49,371.501C1394.88,374.105 1396.73,377.022 1398.03,380.251C1399.34,383.48 1399.99,386.761 1399.99,390.094C1399.99,393.532 1399.34,396.865 1398.03,400.094C1396.73,403.324 1394.91,406.188 1392.57,408.688C1390.22,411.188 1387.41,413.219 1384.13,414.782C1380.85,416.344 1377.23,417.126 1373.27,417.126L1339.99,417.126L1339.99,362.751L1373.27,362.751ZM1282.17,532.594C1282.17,536.969 1284.31,539.157 1288.58,539.157L1333.42,539.157C1337.8,539.157 1339.99,536.969 1339.99,532.594L1339.99,465.094L1364.21,465.094L1399.67,532.907C1400.92,535.303 1402.07,536.943 1403.11,537.829C1404.15,538.714 1405.72,539.157 1407.8,539.157L1461.86,539.157C1463.95,539.157 1465.3,538.428 1465.92,536.969C1466.55,535.511 1466.45,534.053 1465.61,532.594L1422.64,452.594C1428.06,449.157 1433.01,445.121 1437.49,440.485C1441.97,435.85 1445.82,430.876 1449.05,425.563C1452.28,420.251 1454.78,414.678 1456.55,408.844C1458.32,403.011 1459.21,397.126 1459.21,391.188C1459.21,381.813 1457.49,372.621 1454.05,363.61C1450.61,354.6 1445.77,346.605 1439.52,339.626C1433.27,332.647 1425.8,327.022 1417.1,322.751C1408.4,318.48 1398.74,316.344 1388.11,316.344L1288.58,316.344C1286.39,316.344 1284.78,317.048 1283.74,318.454C1282.7,319.86 1282.17,321.397 1282.17,323.063L1282.17,532.594Z" style="fill:rgb(166,28,28);fill-rule:nonzero;"/>
            <path d="M426.55,840.251C426.55,844.626 428.737,846.813 433.112,846.813L477.956,846.813C482.331,846.813 484.519,844.626 484.519,840.251L484.519,771.657L551.55,771.657C555.925,771.657 558.112,769.469 558.112,765.094L558.112,728.688C558.112,724.209 555.925,721.969 551.55,721.969L484.519,721.969L484.519,675.719L575.925,675.719C580.3,675.719 582.487,673.532 582.487,669.157L582.487,630.719C582.487,626.24 580.3,624.001 575.925,624.001L433.112,624.001C428.737,624.001 426.55,626.24 426.55,630.719L426.55,840.251Z" style="fill:rgb(166,28,28);fill-rule:nonzero;"/>
            <path d="M703.894,762.594L656.081,762.594L679.675,694.469L703.894,762.594ZM571.081,840.251C569.415,844.626 570.821,846.813 575.3,846.813L619.987,846.813C624.571,846.813 627.592,844.626 629.05,840.251L639.206,810.876L721.081,810.876L731.55,840.251C733.008,844.626 735.977,846.813 740.456,846.813L785.144,846.813C789.727,846.813 791.133,844.626 789.362,840.251L707.487,630.719C705.717,626.24 702.696,624.001 698.425,624.001L661.706,624.001C657.331,624.001 654.258,626.24 652.487,630.719L571.081,840.251Z" style="fill:rgb(166,28,28);fill-rule:nonzero;"/>
            <path d="M952.956,735.563C952.956,743.584 951.472,751.11 948.503,758.141C945.534,765.173 941.446,771.318 936.237,776.579C931.029,781.839 924.857,786.006 917.722,789.079C910.586,792.152 902.852,793.688 894.519,793.688L873.581,793.688L873.581,677.126L894.519,677.126C902.852,677.126 910.586,678.662 917.722,681.735C924.857,684.808 931.029,688.975 936.237,694.235C941.446,699.496 945.534,705.667 948.503,712.751C951.472,719.834 952.956,727.438 952.956,735.563ZM815.612,840.251C815.612,844.626 817.8,846.813 822.175,846.813L899.987,846.813C910.3,846.813 920.17,845.407 929.597,842.594C939.024,839.782 947.852,835.902 956.081,830.954C964.31,826.006 971.81,820.068 978.581,813.141C985.352,806.214 991.133,798.636 995.925,790.407C1000.72,782.178 1004.44,773.402 1007.1,764.079C1009.75,754.756 1011.08,745.251 1011.08,735.563C1011.08,725.251 1009.62,715.329 1006.71,705.798C1003.79,696.266 999.779,687.386 994.675,679.157C989.571,670.928 983.529,663.402 976.55,656.579C969.571,649.756 961.967,643.949 953.737,639.157C945.508,634.365 936.836,630.641 927.722,627.985C918.607,625.329 909.362,624.001 899.987,624.001L822.175,624.001C817.8,624.001 815.612,626.24 815.612,630.719L815.612,840.251Z" style="fill:rgb(166,28,28);fill-rule:nonzero;"/>
            <path d="M1049.99,840.251C1049.99,844.626 1052.17,846.813 1056.55,846.813L1208.58,846.813C1213.06,846.813 1215.3,844.626 1215.3,840.251L1215.3,801.969C1215.3,797.594 1213.06,795.407 1208.58,795.407L1107.96,795.407L1107.96,757.126L1182.17,757.126C1187.07,757.126 1189.52,754.938 1189.52,750.563L1189.52,719.626C1189.52,717.23 1188.87,715.485 1187.57,714.391C1186.26,713.298 1184.47,712.751 1182.17,712.751L1107.96,712.751L1107.96,675.719L1205.77,675.719C1210.14,675.719 1212.33,673.532 1212.33,669.157L1212.33,630.719C1212.33,626.24 1210.14,624.001 1205.77,624.001L1056.55,624.001C1052.17,624.001 1049.99,626.24 1049.99,630.719L1049.99,840.251Z" style="fill:rgb(166,28,28);fill-rule:nonzero;"/>
            <path d="M1387.64,840.251C1390.35,844.626 1393.95,846.813 1398.42,846.813L1442.33,846.813C1447.23,846.813 1449.67,844.626 1449.67,840.251L1449.67,630.719C1449.67,628.74 1448.84,627.126 1447.17,625.876C1445.51,624.626 1443.89,624.001 1442.33,624.001L1400.61,624.001C1398.32,624.001 1396.63,624.678 1395.53,626.032C1394.44,627.386 1393.89,628.949 1393.89,630.719L1393.89,752.282L1318.74,630.719C1317.38,628.636 1315.82,626.996 1314.05,625.798C1312.28,624.6 1310.3,624.001 1308.11,624.001L1259.52,624.001C1257.33,624.001 1255.69,624.678 1254.6,626.032C1253.5,627.386 1252.96,628.949 1252.96,630.719L1252.96,840.251C1252.96,844.626 1255.14,846.813 1259.52,846.813L1301.39,846.813C1306.29,846.813 1308.74,844.626 1308.74,840.251L1308.74,710.407L1387.64,840.251Z" style="fill:rgb(166,28,28);fill-rule:nonzero;"/>
        </g>
        <g transform="matrix(0.412702,0,0,0.457589,-74.2385,-57.6105)">
            <path d="M1420.49,153.217L1420.49,207.851C1420.49,222.928 1406.92,235.168 1390.2,235.168L210.172,235.168C193.456,235.168 179.884,222.928 179.884,207.851L179.884,153.217C179.884,138.14 193.456,125.9 210.172,125.9L1390.2,125.9C1406.92,125.9 1420.49,138.14 1420.49,153.217Z" style="fill:rgb(166,28,28);"/>
        </g>
    </g>
</svg>
