<?xml version="1.0" encoding="UTF-8" standalone="no"?>
<!DOCTYPE svg PUBLIC "-//W3C//DTD SVG 1.1//EN" "http://www.w3.org/Graphics/SVG/1.1/DTD/svg11.dtd">
<svg width="100%" height="100%" viewBox="0 0 80 48" version="1.1" xmlns="http://www.w3.org/2000/svg" xmlns:xlink="http://www.w3.org/1999/xlink" xml:space="preserve" xmlns:serif="http://www.serif.com/" style="fill-rule:evenodd;clip-rule:evenodd;stroke-linejoin:round;stroke-miterlimit:2;">
    <g transform="matrix(0.05,0,0,0.05,0,0)">
        <g transform="matrix(1,0,0,1,0,-40)">
            <g transform="matrix(2.55641,0,0,1.08712,-503.563,79.2927)">
                <path d="M822.857,791.731L822.857,828.525C822.857,838.679 819.352,846.922 815.034,846.922L204.804,846.922C200.486,846.922 196.98,838.679 196.98,828.525L196.98,791.731C196.98,781.577 200.486,773.333 204.804,773.333L815.034,773.333C819.352,773.333 822.857,781.577 822.857,791.731Z" style="fill:rgb(231,11,14);"/>
            </g>
            <g transform="matrix(1.13528,0,0,1.12109,-68.3544,142.188)">
                <path d="M236.376,176.446L236.376,212.125C236.376,221.971 228.483,229.965 218.76,229.965L77.826,229.965C68.103,229.965 60.209,221.971 60.209,212.125L60.209,176.446C60.209,166.6 68.103,158.606 77.826,158.606L218.76,158.606C228.483,158.606 236.376,166.6 236.376,176.446Z" style="fill:rgb(231,11,14);"/>
            </g>
            <g transform="matrix(1.13528,0,0,1.12109,1331.65,142.188)">
                <path d="M236.376,176.446L236.376,212.125C236.376,221.971 228.483,229.965 218.76,229.965L77.826,229.965C68.103,229.965 60.209,221.971 60.209,212.125L60.209,176.446C60.209,166.6 68.103,158.606 77.826,158.606L218.76,158.606C228.483,158.606 236.376,166.6 236.376,176.446Z" style="fill:rgb(231,11,14);"/>
            </g>
            <g transform="matrix(1.13528,0,0,1.12109,-68.3544,342.188)">
                <path d="M236.376,176.446L236.376,212.125C236.376,221.971 228.483,229.965 218.76,229.965L77.826,229.965C68.103,229.965 60.209,221.971 60.209,212.125L60.209,176.446C60.209,166.6 68.103,158.606 77.826,158.606L218.76,158.606C228.483,158.606 236.376,166.6 236.376,176.446Z" style="fill:rgb(231,11,14);"/>
            </g>
            <g transform="matrix(1.13528,0,0,1.12109,-68.3544,542.188)">
                <path d="M236.376,176.446L236.376,212.125C236.376,221.971 228.483,229.965 218.76,229.965L77.826,229.965C68.103,229.965 60.209,221.971 60.209,212.125L60.209,176.446C60.209,166.6 68.103,158.606 77.826,158.606L218.76,158.606C228.483,158.606 236.376,166.6 236.376,176.446Z" style="fill:rgb(231,11,14);"/>
            </g>
            <g transform="matrix(1.13528,0,0,1.12109,1331.65,342.188)">
                <path d="M236.376,176.446L236.376,212.125C236.376,221.971 228.483,229.965 218.76,229.965L77.826,229.965C68.103,229.965 60.209,221.971 60.209,212.125L60.209,176.446C60.209,166.6 68.103,158.606 77.826,158.606L218.76,158.606C228.483,158.606 236.376,166.6 236.376,176.446Z" style="fill:rgb(231,11,14);"/>
            </g>
            <g transform="matrix(1.13528,0,0,1.12109,1331.65,542.188)">
                <path d="M236.376,176.446L236.376,212.125C236.376,221.971 228.483,229.965 218.76,229.965L77.826,229.965C68.103,229.965 60.209,221.971 60.209,212.125L60.209,176.446C60.209,166.6 68.103,158.606 77.826,158.606L218.76,158.606C228.483,158.606 236.376,166.6 236.376,176.446Z" style="fill:rgb(231,11,14);"/>
            </g>
            <g transform="matrix(0.867943,0,0,0.925522,362.581,71.1916)">
                <path d="M1425.69,506.534L1425.69,765.847C1425.69,777.774 1415.37,787.456 1402.65,787.456L1356.56,787.456C1343.84,787.456 1333.52,777.774 1333.52,765.847L1333.52,506.534C1333.52,494.607 1343.84,484.924 1356.56,484.924L1402.65,484.924C1415.37,484.924 1425.69,494.607 1425.69,506.534Z" style="fill:rgb(231,11,14);"/>
            </g>
            <g transform="matrix(0.867943,0,0,0.925522,-1157.42,271.192)">
                <path d="M1425.69,506.534L1425.69,765.847C1425.69,777.774 1415.37,787.456 1402.65,787.456L1356.56,787.456C1343.84,787.456 1333.52,777.774 1333.52,765.847L1333.52,506.534C1333.52,494.607 1343.84,484.924 1356.56,484.924L1402.65,484.924C1415.37,484.924 1425.69,494.607 1425.69,506.534Z" style="fill:rgb(231,11,14);"/>
            </g>
            <g transform="matrix(0.791361,0,0,0.9375,458.823,-57.8223)">
                <path d="M1442.04,125.677L1442.04,296.344C1442.04,308.118 1430.72,317.677 1416.77,317.677L1366.23,317.677C1352.28,317.677 1340.95,308.118 1340.95,296.344L1340.95,125.677C1340.95,113.903 1352.28,104.344 1366.23,104.344L1416.77,104.344C1430.72,104.344 1442.04,113.903 1442.04,125.677Z" style="fill:rgb(231,11,14);"/>
            </g>
            <g transform="matrix(1.08665,0,0,1.08665,-226.042,-120.19)">
                <text x="401.394px" y="539.157px" style="font-family:'CocogoosePro', 'Cocogoose Pro';font-size:300px;fill:rgb(231,11,14);">RO<tspan x="855.456px " y="539.157px ">T</tspan>ER</text>
                <g transform="matrix(300,0,0,300,1468.74,846.813)">
                </g>
                <text x="401.394px" y="846.813px" style="font-family:'CocogoosePro', 'Cocogoose Pro';font-size:300px;fill:rgb(231,11,14);">F<tspan x="564.519px " y="846.813px ">A</tspan>DEN</text>
            </g>
        </g>
        <g transform="matrix(1.28969,0,0,0.732143,-231.995,-92.1769)">
            <path d="M1420.49,153.217L1420.49,207.851C1420.49,222.928 1413.54,235.168 1404.98,235.168L195.391,235.168C186.833,235.168 179.884,222.928 179.884,207.851L179.884,153.217C179.884,138.14 186.833,125.9 195.391,125.9L1404.98,125.9C1413.54,125.9 1420.49,138.14 1420.49,153.217Z" style="fill:rgb(231,11,14);"/>
        </g>
    </g>
</svg>
