<?xml version="1.0" encoding="UTF-8" standalone="no"?>
<!DOCTYPE svg PUBLIC "-//W3C//DTD SVG 1.1//EN" "http://www.w3.org/Graphics/SVG/1.1/DTD/svg11.dtd">
<svg width="100%" height="100%" viewBox="0 0 512 512" version="1.1" xmlns="http://www.w3.org/2000/svg" xmlns:xlink="http://www.w3.org/1999/xlink" xml:space="preserve" xmlns:serif="http://www.serif.com/" style="fill-rule:evenodd;clip-rule:evenodd;stroke-linejoin:round;stroke-miterlimit:2;">
    <g transform="matrix(2.03849,0,0,2.22538,-76.7403,-203.409)">
        <rect x="37.646" y="91.404" width="251.166" height="230.073" style="fill:rgb(243,237,213);"/>
    </g>
    <g transform="matrix(0.84375,0,0,0.84375,40,40)">
        <g transform="matrix(0.818052,0,0,0.543561,-161.14,51.6463)">
            <path d="M822.857,791.731L822.857,828.525C822.857,838.679 817.38,846.922 810.633,846.922L209.204,846.922C202.458,846.922 196.98,838.679 196.98,828.525L196.98,791.731C196.98,781.577 202.458,773.333 209.204,773.333L810.633,773.333C817.38,773.333 822.857,781.577 822.857,791.731Z" style="fill:rgb(166,28,28);"/>
        </g>
        <g transform="matrix(0.510878,0,0,0.560547,-30.7595,91.0938)">
            <path d="M236.376,176.446L236.376,212.125C236.376,221.971 227.605,229.965 216.802,229.965L79.783,229.965C68.98,229.965 60.209,221.971 60.209,212.125L60.209,176.446C60.209,166.6 68.98,158.606 79.783,158.606L216.802,158.606C227.605,158.606 236.376,166.6 236.376,176.446Z" style="fill:rgb(166,28,28);"/>
        </g>
        <g transform="matrix(0.510878,0,0,0.560547,391.241,91.0938)">
            <path d="M236.376,176.446L236.376,212.125C236.376,221.971 227.605,229.965 216.802,229.965L79.783,229.965C68.98,229.965 60.209,221.971 60.209,212.125L60.209,176.446C60.209,166.6 68.98,158.606 79.783,158.606L216.802,158.606C227.605,158.606 236.376,166.6 236.376,176.446Z" style="fill:rgb(166,28,28);"/>
        </g>
        <g transform="matrix(0.510878,0,0,0.560547,-30.7595,191.094)">
            <path d="M236.376,176.446L236.376,212.125C236.376,221.971 227.605,229.965 216.802,229.965L79.783,229.965C68.98,229.965 60.209,221.971 60.209,212.125L60.209,176.446C60.209,166.6 68.98,158.606 79.783,158.606L216.802,158.606C227.605,158.606 236.376,166.6 236.376,176.446Z" style="fill:rgb(166,28,28);"/>
        </g>
        <g transform="matrix(2.90633,0,0,0.560547,-174.987,291.094)">
            <path d="M236.376,176.446L236.376,212.125C236.376,221.971 234.835,229.965 232.936,229.965L63.65,229.965C61.751,229.965 60.209,221.971 60.209,212.125L60.209,176.446C60.209,166.6 61.751,158.606 63.65,158.606L232.936,158.606C234.835,158.606 236.376,166.6 236.376,176.446Z" style="fill:rgb(166,28,28);"/>
        </g>
        <g transform="matrix(0.510878,0,0,0.560547,391.241,191.094)">
            <path d="M236.376,176.446L236.376,212.125C236.376,221.971 227.605,229.965 216.802,229.965L79.783,229.965C68.98,229.965 60.209,221.971 60.209,212.125L60.209,176.446C60.209,166.6 68.98,158.606 79.783,158.606L216.802,158.606C227.605,158.606 236.376,166.6 236.376,176.446Z" style="fill:rgb(166,28,28);"/>
        </g>
        <g transform="matrix(0.510878,0,0,0.560547,391.241,291.094)">
            <path d="M236.376,176.446L236.376,212.125C236.376,221.971 227.605,229.965 216.802,229.965L79.783,229.965C68.98,229.965 60.209,221.971 60.209,212.125L60.209,176.446C60.209,166.6 68.98,158.606 79.783,158.606L216.802,158.606C227.605,158.606 236.376,166.6 236.376,176.446Z" style="fill:rgb(166,28,28);"/>
        </g>
        <g transform="matrix(0.433972,0,0,0.462761,-106.709,55.5958)">
            <path d="M1425.69,506.534L1425.69,765.847C1425.69,777.774 1415.37,787.456 1402.65,787.456L1356.56,787.456C1343.84,787.456 1333.52,777.774 1333.52,765.847L1333.52,506.534C1333.52,494.607 1343.84,484.924 1356.56,484.924L1402.65,484.924C1415.37,484.924 1425.69,494.607 1425.69,506.534Z" style="fill:rgb(166,28,28);"/>
        </g>
        <g transform="matrix(0.433972,0,0,0.436318,-578.709,168.419)">
            <path d="M1425.69,507.844L1425.69,764.537C1425.69,777.187 1415.37,787.456 1402.65,787.456L1356.56,787.456C1343.84,787.456 1333.52,777.187 1333.52,764.537L1333.52,507.844C1333.52,495.194 1343.84,484.924 1356.56,484.924L1402.65,484.924C1415.37,484.924 1425.69,495.194 1425.69,507.844Z" style="fill:rgb(166,28,28);"/>
        </g>
        <g transform="matrix(0.39568,0,0,0.6,-58.5886,-62.6063)">
            <path d="M1442.04,121.01L1442.04,301.01C1442.04,310.209 1430.72,317.677 1416.77,317.677L1366.23,317.677C1352.28,317.677 1340.95,310.209 1340.95,301.01L1340.95,121.01C1340.95,111.812 1352.28,104.344 1366.23,104.344L1416.77,104.344C1430.72,104.344 1442.04,111.812 1442.04,121.01Z" style="fill:rgb(166,28,28);"/>
        </g>
        <g transform="matrix(0.306387,0,4.57815e-19,0.306387,-31.4189,69.5617)">
            <text x="401.394px" y="539.157px" style="font-family:'CocogoosePro', 'Cocogoose Pro';font-size:300px;fill:rgb(166,28,28);">RO<tspan x="855.456px " y="539.157px ">T</tspan>ER</text>
            <g transform="matrix(300,0,0,300,1468.74,846.813)">
            </g>
            <text x="401.394px" y="846.813px" style="font-family:'CocogoosePro', 'Cocogoose Pro';font-size:300px;fill:rgb(166,28,28);">F<tspan x="564.519px " y="846.813px ">A</tspan>DEN</text>
        </g>
        <g transform="matrix(0.412702,0,0,0.457589,-74.2385,-57.6105)">
            <path d="M1420.49,153.217L1420.49,207.851C1420.49,222.928 1406.92,235.168 1390.2,235.168L210.172,235.168C193.456,235.168 179.884,222.928 179.884,207.851L179.884,153.217C179.884,138.14 193.456,125.9 210.172,125.9L1390.2,125.9C1406.92,125.9 1420.49,138.14 1420.49,153.217Z" style="fill:rgb(166,28,28);"/>
        </g>
    </g>
</svg>
